<svg xmlns="http://www.w3.org/2000/svg" width="15" height="19.092" viewBox="0 0 15 19.092">
  <g id="Group_8482" data-name="Group 8482" transform="translate(-8774 -560)">
    <g id="clipboard" transform="translate(8726.963 560)">
      <g id="Group_8428" data-name="Group 8428" transform="translate(47.037 0)">
        <g id="Group_8427" data-name="Group 8427">
          <path id="Path_12038" data-name="Path 12038" d="M60.128,2.5H58.4V1.729c0-.25-.273-.364-.523-.364H56.537A2.033,2.033,0,0,0,54.514,0a2.068,2.068,0,0,0-2.023,1.364H51.173c-.25,0-.5.114-.5.364V2.5H48.946a1.932,1.932,0,0,0-1.909,1.841V17.365a1.829,1.829,0,0,0,1.909,1.727H60.128a1.829,1.829,0,0,0,1.909-1.727V4.343A1.932,1.932,0,0,0,60.128,2.5Zm-8.546-.227h1.25a.5.5,0,0,0,.432-.409A1.318,1.318,0,0,1,54.514.843a1.3,1.3,0,0,1,1.227,1.023.5.5,0,0,0,.455.409h1.3V4.093H51.582Zm9.546,15.091a.922.922,0,0,1-1,.818H48.946a.922.922,0,0,1-1-.818V4.343a1.023,1.023,0,0,1,1-.932h1.727V4.57a.477.477,0,0,0,.5.432h6.7A.5.5,0,0,0,58.4,4.57V3.411h1.727a1.023,1.023,0,0,1,1,.932V17.365Z" transform="translate(-47.037 0)" fill="#0086e6"/>
          <path id="Path_12039" data-name="Path 12039" d="M102.854,230.453a.455.455,0,0,0-.636-.023l-1.455,1.386-.614-.636a.455.455,0,0,0-.636-.023.477.477,0,0,0,0,.659l.932.955a.409.409,0,0,0,.318.136.455.455,0,0,0,.318-.136l1.773-1.682a.432.432,0,0,0,.026-.61Z" transform="translate(-97.104 -220.292)" fill="#0086e6"/>
          <path id="Path_12040" data-name="Path 12040" d="M204.23,256.034H199a.455.455,0,1,0,0,.909h5.227a.455.455,0,1,0,0-.909Z" transform="translate(-191.957 -244.896)" fill="#0086e6"/>
          <path id="Path_12041" data-name="Path 12041" d="M102.854,146.861a.455.455,0,0,0-.636-.023l-1.455,1.386-.614-.636a.455.455,0,0,0-.636-.023.477.477,0,0,0,0,.659l.932.955a.409.409,0,0,0,.318.136.454.454,0,0,0,.318-.136l1.773-1.682a.432.432,0,0,0,.026-.61Z" transform="translate(-97.104 -140.337)" fill="#0086e6"/>
          <path id="Path_12042" data-name="Path 12042" d="M204.23,172.442H199a.455.455,0,1,0,0,.909h5.227a.455.455,0,1,0,0-.909Z" transform="translate(-191.957 -164.941)" fill="#0086e6"/>
          <path id="Path_12043" data-name="Path 12043" d="M102.854,314.044a.455.455,0,0,0-.636-.023l-1.455,1.386-.614-.636a.455.455,0,0,0-.636-.023.477.477,0,0,0,0,.659l.932.955a.409.409,0,0,0,.318.136.455.455,0,0,0,.318-.136l1.773-1.682a.432.432,0,0,0,.026-.61Z" transform="translate(-97.104 -300.247)" fill="#0086e6"/>
          <path id="Path_12044" data-name="Path 12044" d="M204.23,339.626H199a.455.455,0,1,0,0,.909h5.227a.455.455,0,1,0,0-.909Z" transform="translate(-191.957 -324.852)" fill="#0086e6"/>
        </g>
      </g>
    </g>
  </g>
</svg>
