<svg xmlns="http://www.w3.org/2000/svg" width="14.175" height="9.922" viewBox="0 0 14.175 9.922">
  <path id="Icon_awesome-users" data-name="Icon awesome-users" d="M2.126,6.5A1.417,1.417,0,1,0,.709,5.085,1.419,1.419,0,0,0,2.126,6.5Zm9.922,0a1.417,1.417,0,1,0-1.417-1.417A1.419,1.419,0,0,0,12.049,6.5Zm.709.709H11.34a1.413,1.413,0,0,0-1,.412A3.24,3.24,0,0,1,12,10.046h1.462a.708.708,0,0,0,.709-.709V8.629A1.419,1.419,0,0,0,12.757,7.211Zm-5.67,0A2.481,2.481,0,1,0,4.607,4.731,2.479,2.479,0,0,0,7.087,7.211Zm1.7.709H8.6a3.425,3.425,0,0,1-3.034,0H5.386a2.552,2.552,0,0,0-2.551,2.551v.638A1.063,1.063,0,0,0,3.9,12.172h6.379a1.063,1.063,0,0,0,1.063-1.063v-.638A2.552,2.552,0,0,0,8.788,7.92Zm-4.955-.3a1.413,1.413,0,0,0-1-.412H1.417A1.419,1.419,0,0,0,0,8.629v.709a.708.708,0,0,0,.709.709h1.46A3.248,3.248,0,0,1,3.834,7.623Z" transform="translate(0 -2.25)" fill="#1a1d4d"/>
</svg>
