<svg xmlns="http://www.w3.org/2000/svg" width="20.721" height="16.576" viewBox="0 0 20.721 16.576">
  <path id="Icon_awesome-user-check" data-name="Icon awesome-user-check" d="M7.252,8.288A4.144,4.144,0,1,0,3.108,4.144,4.144,4.144,0,0,0,7.252,8.288Zm2.9,1.036H9.612a5.636,5.636,0,0,1-4.72,0H4.351A4.352,4.352,0,0,0,0,13.676v1.347a1.554,1.554,0,0,0,1.554,1.554h11.4A1.554,1.554,0,0,0,14.5,15.022V13.676A4.352,4.352,0,0,0,10.153,9.324ZM20.611,5.167l-.9-.91a.384.384,0,0,0-.544,0L15.774,7.621,14.3,6.138a.384.384,0,0,0-.544,0l-.91.9a.384.384,0,0,0,0,.544l2.645,2.665a.384.384,0,0,0,.544,0l4.575-4.539a.387.387,0,0,0,0-.544Z" fill="#1a1d4d"/>
</svg>
