<svg xmlns="http://www.w3.org/2000/svg" width="10.634" height="14.431" viewBox="0 0 10.634 14.431">
  <path id="Icon_material-keyboard-voice" data-name="Icon material-keyboard-voice" d="M12.817,13.615a2.269,2.269,0,0,0,2.271-2.279L15.1,6.779a2.279,2.279,0,1,0-4.557,0v4.557A2.276,2.276,0,0,0,12.817,13.615Zm4.026-2.279a3.941,3.941,0,0,1-4.026,3.874,3.941,3.941,0,0,1-4.026-3.874H7.5a5.3,5.3,0,0,0,4.557,5.1v2.491h1.519V16.44a5.292,5.292,0,0,0,4.557-5.1Z" transform="translate(-7.5 -4.5)" fill="#0086e6"/>
</svg>
