<svg xmlns="http://www.w3.org/2000/svg" width="19.997" height="18.258" viewBox="0 0 19.997 18.258">
  <path id="Icon_material-add-a-photo" data-name="Icon material-add-a-photo" d="M2.608,4.108V1.5H4.347V4.108H6.955V5.847H4.347V8.455H2.608V5.847H0V4.108ZM5.217,9.325V6.717H7.825V4.108h6.086L15.5,5.847h2.756A1.744,1.744,0,0,1,20,7.586V18.019a1.744,1.744,0,0,1-1.739,1.739H4.347a1.744,1.744,0,0,1-1.739-1.739V9.325ZM11.3,17.15A4.347,4.347,0,1,0,6.955,12.8,4.349,4.349,0,0,0,11.3,17.15ZM8.52,12.8A2.782,2.782,0,1,0,11.3,10.02,2.779,2.779,0,0,0,8.52,12.8Z" transform="translate(0 -1.5)" fill="#1a1d4d"/>
</svg>
