<svg xmlns="http://www.w3.org/2000/svg" width="20" height="20" viewBox="0 0 20 20">
  <g id="Icon_ionic-ios-chatbubbles" data-name="Icon ionic-ios-chatbubbles" transform="translate(-3.375 -3.375)">
    <path id="Path_12085" data-name="Path 12085" d="M22.74,15.989a1.121,1.121,0,0,1,.153-.565,1.557,1.557,0,0,1,.1-.143A7.5,7.5,0,0,0,24.267,11.1a7.872,7.872,0,0,0-8.038-7.728,7.982,7.982,0,0,0-7.88,6.15,7.436,7.436,0,0,0-.171,1.583,7.85,7.85,0,0,0,7.913,7.825,9.53,9.53,0,0,0,2.184-.356c.523-.143,1.041-.333,1.175-.384a1.223,1.223,0,0,1,.43-.079,1.2,1.2,0,0,1,.467.093l2.624.93a.626.626,0,0,0,.18.046.368.368,0,0,0,.37-.37.594.594,0,0,0-.023-.125Z" transform="translate(-0.892 0)" fill="#0086e6"/>
    <path id="Path_12086" data-name="Path 12086" d="M15.892,22.574c-.167.046-.379.1-.611.148a8.541,8.541,0,0,1-1.573.208A7.85,7.85,0,0,1,5.8,15.1a8.749,8.749,0,0,1,.069-.99c.028-.2.06-.4.106-.592s.1-.416.162-.62l-.37.329a6.886,6.886,0,0,0-2.388,5.178A6.81,6.81,0,0,0,4.523,22.2c.106.162.167.287.148.37s-.551,2.869-.551,2.869a.371.371,0,0,0,.125.356.377.377,0,0,0,.236.083.332.332,0,0,0,.134-.028l2.6-1.023a.723.723,0,0,1,.555.009,7.788,7.788,0,0,0,2.809.555,7.268,7.268,0,0,0,5.558-2.55s.148-.2.319-.444C16.281,22.463,16.086,22.523,15.892,22.574Z" transform="translate(0 -2.507)" fill="#0086e6"/>
  </g>
</svg>
