<svg xmlns="http://www.w3.org/2000/svg" width="16.645" height="22.646" viewBox="0 0 16.645 22.646">
  <g id="Group" transform="translate(0)">
    <path id="Vector" d="M7.737,22.417a17.293,17.293,0,0,1-3.131-1.664A7.991,7.991,0,0,1,1.7,17.2a3.836,3.836,0,0,1-.221-1.664,3.264,3.264,0,0,1,.2-1.541,4.379,4.379,0,0,1,2.442-2.36,3.21,3.21,0,0,1,1.295-.189,3.567,3.567,0,0,1,1.991.459l.263.164V8.524l-.287.115a2.95,2.95,0,0,0-1.057.819c-.385.508-.754.459-1.3-.164A2.393,2.393,0,0,0,3.2,8.484a2.355,2.355,0,0,0-1.844.828c-.484.508-.729.607-1.032.41C0,9.5-.058,9.246.049,8.295A8.085,8.085,0,0,1,1.409,4.451,8.372,8.372,0,0,1,6.909.861C7.294.8,7.622.738,7.639.738s.033-.057.033-.131A.835.835,0,0,1,7.909.238.791.791,0,0,1,8.327,0c.2,0,.655.418.655.607,0,.074.017.131.033.131a11.626,11.626,0,0,1,2.106.492,8.285,8.285,0,0,1,5.483,7.1c.09.943.041,1.181-.278,1.394-.3.2-.549.1-1.033-.41a2.3,2.3,0,0,0-1.844-.82,2.224,2.224,0,0,0-1.794.779c-.574.631-.984.688-1.344.172a2.857,2.857,0,0,0-1.041-.8l-.287-.115v3.5l.393-.189a3.912,3.912,0,0,1,3.615.016,4.158,4.158,0,0,1,2.131,2.656,6.206,6.206,0,0,1-.033,2.2c-.532,2.254-2.918,4.459-6.164,5.713l-.6.229Z" transform="translate(0)" fill="#0086e6"/>
    <path id="Vector-2" data-name="Vector" d="M1.515-6.37v.492H1.023a2.221,2.221,0,0,0-.68.09A.608.608,0,0,0,.187-4.8c.1.115.254.147.713.147h.6l.033.607c.033.738.18.951.639.951s.607-.213.639-.951l.033-.607h.6c.672,0,.885-.139.885-.59,0-.426-.328-.639-.975-.639H2.827v-.541c0-.484-.024-.557-.238-.779a.522.522,0,0,0-.713-.139C1.622-7.222,1.515-6.927,1.515-6.37Z" transform="translate(6.156 22.188)" fill="#0086e6"/>
  </g>
</svg>
