<svg xmlns="http://www.w3.org/2000/svg" width="21.001" height="18.376" viewBox="0 0 21.001 18.376">
  <g id="Icon_awesome-heart" data-name="Icon awesome-heart" transform="translate(0.001 -2.248)" fill="none">
    <path d="M18.962,3.5a5.609,5.609,0,0,0-7.654.558l-.808.833-.808-.833A5.609,5.609,0,0,0,2.038,3.5a5.89,5.89,0,0,0-.406,8.527l7.937,8.2a1.286,1.286,0,0,0,1.858,0l7.937-8.2a5.886,5.886,0,0,0-.4-8.527Z" stroke="none"/>
    <path d="M 5.478099822998047 3.247663497924805 C 4.433189392089844 3.247663497924805 3.467979431152344 3.599542617797852 2.687370300292969 4.264762878417969 C 1.667230606079102 5.135463714599609 1.069690704345703 6.362643241882324 1.004819869995117 7.720252990722656 C 0.9404506683349609 9.0673828125 1.431060791015625 10.38536262512207 2.35045051574707 11.33583354949951 L 10.28701972961426 19.53079223632812 C 10.3612699508667 19.60742378234863 10.44268035888672 19.62351226806641 10.49788951873779 19.62351226806641 C 10.55309963226318 19.62351226806641 10.63449954986572 19.60742378234863 10.70858001708984 19.53098297119141 L 18.64553070068359 11.33563327789307 C 19.56661987304688 10.38508319854736 20.05833053588867 9.067422866821289 19.99456977844238 7.720513343811035 C 19.93029975891113 6.362973213195801 19.33293914794922 5.135704040527344 18.31307983398438 4.265253067016602 C 17.53190040588379 3.599542617797852 16.5671501159668 3.247663497924805 15.52313041687012 3.247663497924805 C 14.23089027404785 3.247663497924805 12.95625972747803 3.798133850097656 12.02560997009277 4.758382797241211 L 10.49993991851807 6.330533981323242 L 8.973130226135254 4.7572021484375 C 8.045220375061035 3.797872543334961 6.771329879760742 3.247663497924805 5.478099822998047 3.247663497924805 M 5.478095054626465 2.247665405273438 C 7.007167816162109 2.247665405273438 8.548403739929199 2.879737854003906 9.691909790039062 4.06196403503418 L 10.49993991851807 4.894613265991211 L 11.30797004699707 4.06196403503418 C 13.37110996246338 1.933202743530273 16.71397972106934 1.588651657104492 18.96170043945312 3.504142761230469 C 21.53755950927734 5.702642440795898 21.67291069030762 9.648452758789062 19.36367034912109 12.03152275085449 L 11.42691993713379 20.2266731262207 C 10.91421031951904 20.75579261779785 10.08157157897949 20.75579452514648 9.568860054016113 20.2266731262207 L 1.632110595703125 12.03152275085449 C -0.6730403900146484 9.648452758789062 -0.5376796722412109 5.702642440795898 2.038179397583008 3.504142761230469 C 3.037609100341797 2.652437210083008 4.253862380981445 2.247665405273438 5.478095054626465 2.247665405273438 Z" stroke="none" fill="#1a1d4d"/>
  </g>
</svg>
