<svg xmlns="http://www.w3.org/2000/svg" width="18.503" height="14.388" viewBox="0 0 18.503 14.388">
  <path id="Icon_awesome-home" data-name="Icon awesome-home" d="M9.005,5.986,3.083,10.864v5.264a.514.514,0,0,0,.514.514l3.6-.009a.514.514,0,0,0,.511-.514V13.044a.514.514,0,0,1,.514-.514h2.056a.514.514,0,0,1,.514.514v3.072a.514.514,0,0,0,.514.516l3.6.01a.514.514,0,0,0,.514-.514V10.86L9.5,5.986A.392.392,0,0,0,9.005,5.986ZM18.36,9.3,15.674,7.088V2.639a.385.385,0,0,0-.385-.385h-1.8a.385.385,0,0,0-.385.385V4.971L10.229,2.605a1.542,1.542,0,0,0-1.959,0L.139,9.3a.385.385,0,0,0-.051.543l.819,1a.385.385,0,0,0,.543.052L9.005,4.669a.392.392,0,0,1,.491,0l7.556,6.223a.385.385,0,0,0,.543-.051l.819-1A.385.385,0,0,0,18.36,9.3Z" transform="translate(0.001 -2.254)" fill="#0086e6"/>
</svg>
