<svg xmlns="http://www.w3.org/2000/svg" width="18.343" height="18.343" viewBox="0 0 18.343 18.343">
  <path id="Icon_material-language" data-name="Icon material-language" d="M12.162,3a9.172,9.172,0,1,0,9.181,9.172A9.167,9.167,0,0,0,12.162,3Zm6.356,5.5H15.813a14.353,14.353,0,0,0-1.266-3.265A7.364,7.364,0,0,1,18.518,8.5ZM12.172,4.871A12.92,12.92,0,0,1,13.923,8.5h-3.5A12.92,12.92,0,0,1,12.172,4.871Zm-7.1,9.135a7.174,7.174,0,0,1,0-3.669h3.1a15.147,15.147,0,0,0-.128,1.834,15.147,15.147,0,0,0,.128,1.834Zm.752,1.834H8.53A14.353,14.353,0,0,0,9.8,19.105,7.325,7.325,0,0,1,5.825,15.84ZM8.53,8.5H5.825A7.325,7.325,0,0,1,9.8,5.238,14.353,14.353,0,0,0,8.53,8.5Zm3.641,10.969A12.92,12.92,0,0,1,10.42,15.84h3.5A12.92,12.92,0,0,1,12.172,19.472Zm2.146-5.466H10.025a13.494,13.494,0,0,1-.147-1.834,13.377,13.377,0,0,1,.147-1.834h4.292a13.377,13.377,0,0,1,.147,1.834A13.494,13.494,0,0,1,14.318,14.006Zm.229,5.1a14.353,14.353,0,0,0,1.266-3.265h2.706a7.364,7.364,0,0,1-3.971,3.265Zm1.623-5.1a15.147,15.147,0,0,0,.128-1.834,15.147,15.147,0,0,0-.128-1.834h3.1a7.174,7.174,0,0,1,0,3.669Z" transform="translate(-3 -3)" fill="#0086e6"/>
</svg>
