<svg xmlns="http://www.w3.org/2000/svg" width="430" height="430" viewBox="0 0 430 430">
  <g id="Group_8711" data-name="Group 8711" transform="translate(-951 66)">
    <path id="Rectangle_17569" data-name="Rectangle 17569" d="M0,0H130a0,0,0,0,1,0,0V130a0,0,0,0,1,0,0H30A30,30,0,0,1,0,100V0A0,0,0,0,1,0,0Z" transform="translate(1101 84)" fill="#fff"/>
    <g id="Group_1" data-name="Group 1" transform="translate(1128.198 108.955)">
      <path id="Vector" d="M0,7.665c4.281,2.913,5.519,5.089,13.5,8.911s15.95.355,22.545-1.078c7.734-1.679,9.963-6.759,2.337-4.511s-14.193.473-16.612-.929-7.015-3.629.682-2.213,9.685-1.852,5.417-2.511S20.726,1.416,12.745.126C6.36-.909,1.462,4.7,0,7.665Z" transform="translate(1.431 45.316)" fill="#1a1d4d"/>
      <path id="Vector-2" data-name="Vector" d="M5.193,48.662,1.438,52.981C.8,51.889.176,49.71.03,45.347-.112,41.11.291,21.04.342,11.534a1.366,1.366,0,0,1,.784-1.247C1.91,9.976,33.338-.236,33.817,0,34.746.471,60.4,7.638,66.664,10.287c.624.264.94.781.94,2.649.01.781-.193,10.341-.183,11.219-.156,4.086-.251,27.261-.607,27.889-1.5,2.649-1.825,7.488-15,17.761C43.02,76.659,36.062,79.468,33.98,80.089,23,75.409,14.088,68.428,8.3,63.882l9.858,3.2C32.233,74.764,30.974,74.01,33.79,75.1c17.986-7.948,25.682-19.316,28.026-23.057.577-.916.882-18.424,1.086-22.283l-.146-15.893C53.424,11.115,34.57,5.735,33.82,5.61S14.427,11.01,5.2,13.869l0,0Z" transform="translate(0 0)" fill="#1a1d4d"/>
      <path id="Vector-3" data-name="Vector" d="M8.128,0V8.421H0V0Z" transform="translate(24.783 32.976)" fill="#0086e6"/>
      <path id="Vector-4" data-name="Vector" d="M8.128,0V8.421H0V0Z" transform="translate(34.756 32.976)" fill="#0086e6"/>
      <path id="Vector-5" data-name="Vector" d="M8.128,0V8.421H0V0Z" transform="translate(24.783 23.031)" fill="#0086e6"/>
      <path id="Vector-6" data-name="Vector" d="M8.128,0V8.421H0V0Z" transform="translate(34.756 23.031)" fill="#0086e6"/>
    </g>
  </g>
</svg>
