<svg xmlns="http://www.w3.org/2000/svg" width="6.899" height="5.331" viewBox="0 0 6.899 5.331">
  <path id="Path_12103" data-name="Path 12103" d="M3.574,3.332c.647,0,1.989.065,1.989,1s-1.39,1-2,1H3.449a.218.218,0,0,1,0-.437c.766,0,1.679-.1,1.679-.565,0-.372-.565-.56-1.679-.56-.766,0-1.679.1-1.679.566,0,.1.03.238.267.355a1.59,1.59,0,0,0,.366.119.218.218,0,0,1-.09.427,2.05,2.05,0,0,1-.467-.154.807.807,0,0,1-.511-.747c0-.937,1.39-1,2-1Zm2.092-.2a3.219,3.219,0,0,1,.481.07.9.9,0,0,1,.688.429.654.654,0,0,1,0,.563.906.906,0,0,1-.692.432.2.2,0,0,1-.044,0A.218.218,0,0,1,6.056,4.2c.3-.061.369-.155.387-.192a.219.219,0,0,0,0-.187c-.037-.078-.181-.149-.385-.19a2.823,2.823,0,0,0-.421-.061.218.218,0,0,1,.029-.435Zm-4.431,0a.218.218,0,0,1,.029.435,2.727,2.727,0,0,0-.417.061c-.21.042-.355.113-.392.191a.221.221,0,0,0,0,.188c.018.038.091.131.388.192A.218.218,0,0,1,.8,4.631a.224.224,0,0,1-.044,0,.907.907,0,0,1-.693-.433.655.655,0,0,1,0-.563A.9.9,0,0,1,.758,3.2,3.164,3.164,0,0,1,1.235,3.131ZM3.45,0a1.44,1.44,0,0,1,0,2.88,1.417,1.417,0,0,1-.881-.3.219.219,0,0,1-.038-.306.216.216,0,0,1,.3-.038.989.989,0,0,0,.615.21,1,1,0,1,0-1-1,.217.217,0,1,1-.434,0A1.438,1.438,0,0,1,3.45,0ZM5.232.3a1.137,1.137,0,0,1,0,2.274.218.218,0,0,1,0-.437.7.7,0,0,0,0-1.4.218.218,0,0,1,0-.437ZM1.671.286a.218.218,0,0,1,0,.437.7.7,0,0,0,0,1.406.218.218,0,0,1,0,.437,1.14,1.14,0,0,1,0-2.279Z" transform="translate(0 0)" fill="#0086e6"/>
</svg>
