<svg xmlns="http://www.w3.org/2000/svg" width="17.538" height="19.376" viewBox="0 0 17.538 19.376">
  <g id="Icon_feather-share-2" data-name="Icon feather-share-2" transform="translate(0.5 0.5)">
    <path id="Path_12095" data-name="Path 12095" d="M28.013,5.756A2.756,2.756,0,1,1,25.256,3,2.756,2.756,0,0,1,28.013,5.756Z" transform="translate(-11.474 -3)" fill="none" stroke="#1a1d4d" stroke-linecap="round" stroke-linejoin="round" stroke-width="1"/>
    <path id="Path_12096" data-name="Path 12096" d="M10.013,16.256A2.756,2.756,0,1,1,7.256,13.5,2.756,2.756,0,0,1,10.013,16.256Z" transform="translate(-4.5 -7.068)" fill="none" stroke="#1a1d4d" stroke-linecap="round" stroke-linejoin="round" stroke-width="1"/>
    <path id="Path_12097" data-name="Path 12097" d="M28.013,26.756A2.756,2.756,0,1,1,25.256,24,2.756,2.756,0,0,1,28.013,26.756Z" transform="translate(-11.474 -11.137)" fill="none" stroke="#1a1d4d" stroke-linecap="round" stroke-linejoin="round" stroke-width="1"/>
    <path id="Path_12098" data-name="Path 12098" d="M12.885,20.265l6.275,3.657" transform="translate(-7.749 -9.69)" fill="none" stroke="#1a1d4d" stroke-linecap="round" stroke-linejoin="round" stroke-width="1"/>
    <path id="Path_12099" data-name="Path 12099" d="M19.151,9.765l-6.266,3.657" transform="translate(-7.749 -5.621)" fill="none" stroke="#1a1d4d" stroke-linecap="round" stroke-linejoin="round" stroke-width="1"/>
  </g>
</svg>
