<svg xmlns="http://www.w3.org/2000/svg" width="11.862" height="8.303" viewBox="0 0 11.862 8.303">
  <path id="Icon_awesome-cloud-upload-alt" data-name="Icon awesome-cloud-upload-alt" d="M9.964,5.857A1.781,1.781,0,0,0,8.3,3.436a1.77,1.77,0,0,0-.988.3A2.966,2.966,0,0,0,1.779,5.215c0,.05,0,.1,0,.15a2.67,2.67,0,0,0,.886,5.188H9.489a2.372,2.372,0,0,0,.474-4.7ZM7.291,6.995H6.079V9.071a.3.3,0,0,1-.3.3h-.89a.3.3,0,0,1-.3-.3V6.995H3.384a.3.3,0,0,1-.209-.506L5.128,4.535a.3.3,0,0,1,.419,0L7.5,6.489a.3.3,0,0,1-.209.506Z" transform="translate(0 -2.25)" fill="#0086e6"/>
</svg>
