<svg xmlns="http://www.w3.org/2000/svg" width="45" height="45" viewBox="0 0 45 45">
  <g id="Group_8694" data-name="Group 8694" transform="translate(-1156 -183)">
    <circle id="Ellipse_39" data-name="Ellipse 39" cx="22.5" cy="22.5" r="22.5" transform="translate(1156 183)" fill="#0dc143"/>
    <path id="Icon_simple-whatsapp" data-name="Icon simple-whatsapp" d="M18.227,14.981c-.314-.156-1.841-.9-2.125-1.006s-.493-.156-.7.156-.8,1-.983,1.21-.364.219-.673.078a8.454,8.454,0,0,1-2.5-1.547,9.451,9.451,0,0,1-1.729-2.156c-.181-.313-.02-.484.135-.641.142-.141.314-.359.47-.545a2.641,2.641,0,0,0,.309-.517.573.573,0,0,0-.026-.546c-.078-.156-.7-1.687-.96-2.3s-.507-.531-.7-.531c-.179-.016-.386-.016-.595-.016A1.174,1.174,0,0,0,7.316,7,3.478,3.478,0,0,0,6.227,9.576a6.1,6.1,0,0,0,1.27,3.2,13.89,13.89,0,0,0,5.313,4.672c.744.313,1.323.5,1.775.655a4.31,4.31,0,0,0,1.958.126,3.206,3.206,0,0,0,2.1-1.485,2.578,2.578,0,0,0,.187-1.484c-.077-.141-.281-.219-.594-.359m-5.673,7.753h-.017a10.42,10.42,0,0,1-5.266-1.437L6.906,21,3,22.011l1.047-3.8L3.8,17.824A10.331,10.331,0,0,1,19.889,5.079a10.2,10.2,0,0,1,3.03,7.281,10.344,10.344,0,0,1-10.349,10.3M21.375,3.593A12.648,12.648,0,0,0,12.547,0,12.385,12.385,0,0,0,1.767,18.581L0,25l6.6-1.721a12.565,12.565,0,0,0,5.948,1.507h.006A12.438,12.438,0,0,0,25,12.395a12.286,12.286,0,0,0-3.641-8.761" transform="translate(1166 193)" fill="#fff"/>
  </g>
</svg>
